<?xml version="1.0" encoding="utf-8"?>
<!-- Generator: Adobe Illustrator 27.5.0, SVG Export Plug-In . SVG Version: 6.00 Build 0)  -->
<svg version="1.1" xmlns="http://www.w3.org/2000/svg" xmlns:xlink="http://www.w3.org/1999/xlink" x="0px" y="0px"
	 viewBox="0 0 500 500" style="enable-background:new 0 0 500 500;" xml:space="preserve">
<g id="BACKGROUND">
	<rect style="fill:#FFFAF3;" width="500" height="500"/>
</g>
<g id="OBJECTS">
	<g>
		<path d="M270.783,115.912c-0.495-0.345-1.02-0.646-1.528-0.97c-0.447-0.585-0.87-1.187-1.227-1.835
			c-1.883-3.635-2.792-6.88-7.269-7.723c-6.488-1.232-13.95,0.259-20.181-2.271c0.26,2.142,2.337,4.153,3.764,5.516
			c5.125,5.062,11.422,7.722,18.558,7.722c2.395,0,5.021-0.105,7.328,0.688c2.95,2.163,5.136,4.659,7.58,7.44
			c1.446,3.573,2.713,7.221,3.874,10.911c0.181,4.795,0.552,9.579,1.123,14.308c1.46,12.09,4.332,23.971,8.129,35.534
			c-0.615-0.751-1.241-1.49-1.847-2.225c-2.782-3.374-5.743-6.595-8.766-9.755c-0.143-1.18-0.186-2.382-0.354-3.56
			c-0.909-5.775-4.347-10.772-9.019-14.276c-7.465-5.581-16.548-8.176-24.597-12.848c0.195,1.688,1.43,3.504,2.142,4.997
			c3.636,7.657,7.465,16.612,14.343,21.933c3.762,2.856,8.308,3.96,12.912,4.608c1.184,0.189,2.534,0.177,3.784,0.404
			c2.289,2.418,4.539,4.874,6.711,7.397c2.232,2.588,4.156,5.631,6.375,8.277c0.426,1.202,0.846,2.405,1.29,3.599
			c4.607,12.389,10.27,25.615,18.802,35.833c0.382,0.456,1.025-0.124,0.783-0.604c-5.065-10.053-10.596-19.623-15.129-29.868
			c-1.005-10.354,2.115-21.869,6.434-32.286c0.515-0.317,1.072-0.59,1.581-0.929c1.558-0.973,2.726-2.271,4.089-3.504
			c2.142-1.947,4.671-3.374,6.488-5.646c2.531-2.985,3.114-6.294,3.439-10.059c0.259-3.374,1.816-6.424,2.143-9.734
			c-2.791,1.558-5.256,3.893-7.724,5.84c-3.439,2.662-6.878,5.452-9.149,9.216c-2.765,4.456-2.391,8.912-2.203,13.708
			c-1.122,2.876-2.077,5.839-2.933,8.876c-0.18,0.637-0.361,1.291-0.541,1.951c0.022-2.002-0.109-3.983-0.399-5.987
			c0.185-1.099,0.662-2.198,0.819-3.298c0.584-3.893,1.039-8.955-0.129-12.719c-1.492-5.127-3.115-11.681-6.359-15.963
			c-0.649,2.335-1.883,4.541-2.79,6.748c-3.949,9.438,1.895,16.18,6.998,23.512c0.175,0.796,0.365,1.588,0.513,2.392
			c0.573,3.136,0.221,6.24,0.311,9.369c-1.22,5.132-2.114,10.636-1.752,15.796c-0.444-1.058-0.892-2.113-1.31-3.19
			c-4.877-12.559-8.264-25.683-10.398-38.976c0.522-8.169,5.322-16.449,9.566-23.344c0.493-0.358,0.994-0.689,1.457-1.004
			c5.256-3.375,10.901-6.1,16.029-9.669c8.89-6.166,10.514-17.002,14.082-26.606c-3.181,1.688-6.101,3.893-9.281,5.516
			c-3.828,1.947-7.98,3.31-11.354,6.1c-3.441,2.855-5.647,6.878-7.528,10.837c-2.242,4.877-4.066,10.421-5.409,15.776
			c-3.379,5.581-7.114,12.404-8.072,19.067c-2.179-15.193-2.141-30.796,0.773-45.755c1.705-2.097,3.672-3.866,5.773-5.472
			c0.588-0.22,1.189-0.403,1.809-0.505c1.856-0.304,3.767,0.065,5.639-0.054c2.965-0.189,6.208-0.468,8.892-1.809
			c2.095-1.045,3.855-2.665,5.361-4.439c1.603-1.888,3.366-3.637,4.954-5.55c0.943-1.137,2.063-2.265,2.856-3.502
			c-1.31,0.242-2.622,0.41-3.945,0.596c-2.355,0.33-4.699,0.743-7.057,1.072c-3.04,0.425-6.156,0.739-9.113,1.603
			c-2.896,0.846-5.267,2.778-6.939,5.287c-1.393,2.117-2.585,4.395-3.796,6.612c-1.444,1.245-2.792,2.578-4.001,3.997
			c1.163-5.422,2.715-10.748,4.689-15.931c0.908-0.843,1.964-1.568,2.914-2.271c5.191-3.828,11.29-6.553,15.704-11.42
			c3.567-3.894,4.866-8.566,6.165-13.563c1.102-4.218,2.79-8.89,2.985-13.303c-1.753,2.076-4.673,3.375-6.945,4.737
			c-8.046,4.867-16.287,10.188-20.246,19.079c-2.491,5.635-2.721,11.318-2.841,17.194c-5.146,13.672-7.159,28.445-7.036,43.221
			c-2.017-7.286-5.225-14.347-9.166-20.954c-0.159-1.016-0.317-2.023-0.36-3.057c-0.323-5.321-0.259-9.539-3.633-14.08
			c-4.738-6.425-12.525-9.605-17.52-15.705c0.195,1.882,0.584,3.763,0.712,5.71c0.195,3.18-0.064,6.555,1.168,9.605
			c1.299,3.115,3.83,4.412,6.36,6.294c3.678,2.812,6.598,6.382,10.096,9.374c1.089,1.728,2.153,3.475,3.17,5.257
			c1.223,2.151,2.333,4.35,3.365,6.582C274.195,118.279,272.34,116.994,270.783,115.912z"/>
		<path d="M214.83,176.259c-3.785,2.215-9.768,6.19-11.71,10.867c-2.066,1.888-3.881,3.969-5.22,6.209
			c0.583-5.243,1.012-10.516,1.246-15.798c1.677-3.339,3.895-6.007,6.351-8.456c0.822-0.121,1.662-0.149,2.34-0.202
			c5.52-0.364,11.15,1.858,15.309-3.229c3.725-4.649,5.528-12.79,5.253-18.604c-2.162,0.712-4.129,2.41-5.996,3.646
			c-3.374,2.163-7.108,3.765-10.084,6.426c-3.02,2.82-6.912,7.341-8.983,11.475c-1.57,1.774-2.949,3.693-4.062,5.763
			c0.187-6.662,0.03-13.329-0.601-19.954c-0.022-0.253-0.056-0.505-0.08-0.758c1.708-3.756,3.602-7.018,5.813-9.953
			c0.375-0.086,0.769-0.154,1.181-0.231c4.929-0.977,10.704-1.624,15.088-4.317c3.438-2.125,3.314-4.545,4.046-8.108
			c0.516-2.91,2.084-5.105,3.702-7.531c-7.616,1.549-15.368,0.846-21.138,6.886c-3.702,3.816-6.723,9.014-7.005,14.396
			c-0.869,1.434-1.607,2.902-2.16,4.383c-0.523-4.961-1.102-9.917-1.757-14.862c-0.001-0.012-0.003-0.022-0.004-0.033
			c-0.063-0.467-0.115-0.934-0.18-1.402c1.364-2.518,2.593-5.025,3.951-7.433c0.408-0.098,0.846-0.141,1.271-0.205
			c4.109-0.77,10.172,0.145,12.115-4.434c1.258-2.989,0.836-6.369,1.724-9.318c0.595-2.168,2.036-3.568,3.209-5.391
			c-5.912,1.609-15.662,4.843-19.103,10.184c-1.71,2.635-1.219,5.387-1.068,8.213c-1.01,1.815-1.831,3.736-2.492,5.632
			c-0.689-4.956-1.434-9.903-2.227-14.845c0.102-0.087,0.191-0.198,0.241-0.363c0.653-2.221,1.793-4.122,3.086-5.924
			c0.507-0.047,1.034-0.032,1.526-0.05c4.329-0.117,7.059,0.117,9.504-3.99c2.625-4.262,3.223-9.208,5.193-13.685
			c-2.417,1.43-5.013,2.579-7.598,3.561c-2.175,0.878-5.402,1.043-7.189,2.586c-2.545,2.271-2.418,6.133-2.487,9.512
			c-1.133,1.628-2.105,3.34-2.782,5.15c-0.706-4.298-1.45-8.591-2.216-12.881c0.012-0.118,0.005-0.241-0.051-0.375
			c-0.009-0.022-0.02-0.043-0.028-0.064c-0.11-0.614-0.224-1.229-0.333-1.843c2.02-2.684,3.828-5.548,5.511-8.499
			c0.57-0.091,1.14-0.148,1.625-0.233c4.148-0.834,8.089-2.051,10.072-6.259c2.161-4.798,1.115-11.071,0.92-16.143
			c-2.084,1.455-4.437,2.488-6.521,3.942c-3.885,2.729-8,5.407-8.239,10.481c-0.153,2.391,0.108,5.224-0.04,7.874
			c-1.296,2.394-2.495,4.83-3.61,7.282c-0.986-5.43-2-10.855-3.043-16.273c0.313-0.938,0.87-1.782,1.442-2.619
			c2.229-3.453,3.411-6.313,1.809-10.485c-2.881-7.278-8.411-13.612-11.664-20.851c-1.261,2.117-1.005,5.485-1.177,7.817
			c-0.229,4.036-0.446,7.905,0.297,11.912c1.054,5.208,4.065,9.089,8.053,12.451c1.049,5.927,2.084,11.86,3.092,17.799
			c-1.208-2.115-2.633-4.106-4.212-5.982c-0.55-7.622-5.161-12.757-11.302-17.221c-1.939-1.416-3.879-2.831-5.894-4.117
			c3.36,5.304,0.166,11.399,2.911,16.424c2.359,4.36,6.19,4.642,10.343,5.55c0.447,0.076,0.874,0.185,1.292,0.311
			c2.646,3.014,5.271,6.051,7.503,9.407c0.035,0.053,0.079,0.085,0.117,0.124c0.688,4.125,1.358,8.253,1.995,12.386
			c-2.107-3.073-4.513-6.089-7.275-8.63c-1.557-3.452-3.434-6.961-6.625-8.862c-2.786-1.745-6.245-2.066-9.322-3.029
			c-2.514-0.889-4.761-2.226-7.286-2.947c1.585,2.595,3.13,5.254,4.331,8.055c0.969,2.315,1.784,4.887,3.737,6.572
			c3.739,3.356,8.757,2.519,13.383,2.926c0.399,0.039,0.792,0.084,1.178,0.135c2.892,2.8,5.536,5.893,8.079,9.09
			c0.094,0.117,0.205,0.182,0.322,0.222c0.798,5.333,1.548,10.671,2.22,16.018c-1.433-1.769-3.028-3.332-4.752-4.732
			c-2.022-2.968-4.574-5.888-6.877-8.463c-5.131-5.836-9.647-4.093-16.502-4.696c-1.832-0.135-3.692-0.808-5.601-0.814
			c3.191,3.986,5.721,9.665,9.791,12.61c4.263,3.06,10.864,4.381,15.997,3.352c0.807-0.128,1.561-0.361,2.363-0.364
			c2.169,1.824,4.179,3.819,5.941,6.06c0.648,5.379,1.201,10.771,1.673,16.171c-2.064-2.233-4.418-4.254-6.978-5.991
			c-2.492-4.327-4.816-7.932-9.96-9.587c-3.924-1.293-8.039-2.265-12.065-3.533c-2.68-0.9-6.286-2.874-9.142-2.749
			c2.16,2.503,4.282,5.071,6.341,7.601c2.637,3.309,5.238,7.553,8.896,9.731c4.519,2.777,10.252,1.323,15.247,1.254
			c0.118,0.005,0.237,0.009,0.357,0.013c2.635,1.937,5.156,4.103,7.602,6.552c0.012,0.146,0.029,0.29,0.04,0.436
			c0.54,6.864,0.562,13.762,0.266,20.647c-1.567-2.136-3.403-4.054-5.439-5.744c-2.1-3.864-5.62-7.338-8.895-9.959
			c-4.276-3.328-8.721-3.019-13.568-4.949c-2.373-0.978-5.48-2.914-8.08-2.637c1.674,2.3,3.282,4.562,4.675,7.043
			c1.495,2.889,2.48,6.344,4.961,8.603c4.625,4.058,12.54,3.903,18.279,4.191c0.645,0.03,1.311,0.029,1.969,0.08
			c2.203,1.849,4.219,3.928,5.962,6.325c-0.26,4.596-0.652,9.185-1.132,13.753c-0.341,3.237-0.809,6.467-1.332,9.693
			c-0.822-1.872-1.79-3.714-2.886-5.504c-0.667-5.378-2.58-11.231-6.813-14.611c-4.97-3.915-11.5-6.673-17.589-8.126
			c-1.744-0.429-3.486-0.859-5.016-1.942c1.11,2.225,2.564,4.307,3.674,6.533c1.393,2.916,2.174,6.422,4.309,8.823
			c4.23,4.866,11.37,6.596,17.105,8.793c0.371,0.119,0.724,0.272,1.065,0.433c2.024,2.605,3.909,5.371,5.585,8.424
			c0.021,0.036,0.05,0.055,0.073,0.086c-1.498,8.756-3.249,17.496-3.839,26.305c-0.042,0.65,0.889,0.715,1.083,0.149
			c3.412-9.98,4.81-20.924,6.007-31.525c1.015-4.227,3.685-7.465,6.99-10.254c0.688-0.109,1.375-0.173,2.009-0.229
			c5.044-0.735,10.007,1.003,14.789-1.626c6.597-3.635,8.404-10.904,11.418-17.28C227.233,173.386,220.289,173.077,214.83,176.259z"
			/>
		<path d="M123.235,165.819c-3.498,1.416-6.912,3.643-9.295,6.634c-0.005,0.003-0.008,0.006-0.013,0.008
			c0.694-2.139,1.487-4.243,2.393-6.3c1.061-0.579,1.758-1.603,2.545-2.645c1.495-1.984,3.475-3.494,4.961-5.489
			c1.455-1.955,1.339-6.001-1.78-6.168c-6.781-0.364-9.359,9.967-7.473,15.141c-0.578,1.325-1.108,2.66-1.596,4.004
			c-0.627-1.9-1.469-3.851-2.238-5.609c-0.655-1.493-2.155-3.504-3.971-2.558c-2.322,1.21-1.538,4.171-0.575,5.935
			c1.246,2.279,3.444,4.432,5.532,6.016c-1.101,3.646-1.924,7.367-2.535,11.174c-0.712-2.45-1.604-4.929-2.389-7.17
			c-0.8-2.284-1.777-5.518-4.269-6.439c-2.9-1.071-3.445,4.671-3.122,6.138c1.229,5.571,5.039,9.547,9,13.38
			c-0.095,0.895-0.185,1.794-0.262,2.699c-0.145,1.684-0.352,3.532-0.546,5.468c-0.485-0.862-1.021-1.714-1.367-2.632
			c-0.722-1.909-1.535-3.769-2.558-5.539c-1.394-2.41-4.129-4.825-6.557-2.229c-2.224,2.378,1.376,6.511,2.838,8.206
			c1.756,2.038,4.476,5.039,7.322,5.73c-0.41,5.283-0.447,10.888,1.195,15.531c-7.688-9.475-15.564-18.729-22.033-29.232
			c-2.012-3.266-3.866-6.611-5.567-10.023c0.123-0.059,0.211-0.178,0.19-0.354c-0.722-6.285-0.703-12.419-0.161-18.456
			c0.531-0.803,1.278-1.449,2.11-1.864c2.438-1.256,17.66-3.325,14.778-8.276c-2.291-3.917-11.084,1.552-13.005,3.251
			c-1.423,1.289-2.758,2.93-3.683,4.738c0.44-3.939,1.101-7.837,1.938-11.708c0.758-0.869,1.669-1.616,2.631-2.193
			c1.995-1.182,15.887-7.463,11.749-10.714c-3.03-2.439-9.902,5.247-11.38,7.02c-0.697,0.88-1.592,1.998-2.382,3.217
			c0.955-4.018,2.081-8.009,3.335-11.989c0.458-0.311,0.92-0.607,1.338-0.909c2.512-1.995,11.527-5.69,11.601-8.867
			c0.074-3.547-6.28,0.665-7.389,1.552c-1.678,1.305-3.178,2.875-4.392,4.652c0.612-1.839,1.244-3.677,1.895-5.514
			c0.693-0.854,1.601-1.6,2.308-2.39c2.068-2.438,10.788-19.212,3.104-15.887c-6.646,2.838-5.899,11.188-6.324,17.275
			c-0.608,1.375-1.211,2.772-1.803,4.191c0.061-3.11-0.351-12.535-3.876-7.943c-2.227,2.882,0.305,9.241,1.886,12.915
			c-1.376,3.595-2.646,7.288-3.726,11.033c-0.053-0.202-0.101-0.392-0.155-0.598c-0.592-2.439-0.665-15.887-4.877-14.483
			c-3.695,1.256-0.739,8.793,0.222,10.862c1.062,2.36,2.467,4.613,4.151,6.597c-0.994,3.762-1.772,7.564-2.263,11.357
			c-0.595-3.472,0.075-6.943-1.372-10.343c-0.887-2.069-4.285-7.094-5.837-3.03c-1.626,4.138,1.921,11.158,3.99,14.557
			c0.834,1.326,1.771,2.483,2.759,3.591c-0.329,5.445,0.03,10.826,1.327,16.001c-4.788-10.197-8.201-20.978-10.124-32.154
			c-2.438-14.167-2.881-30.017-0.417-45.266c1.538-2.391,3.269-4.561,5.135-6.579c0.893,0.165,1.825,0.236,2.724,0.342
			c2.66,0.295,15.074,1.7,15.666-2.143c0.416-3.04-10.794-2.521-16.351-0.307c2.829-2.79,5.878-5.337,8.961-7.864
			c0.832,0.222,1.615,0.563,2.438,0.782c1.995,0.443,11.158,1.256,11.453-1.773c0.253-3.92-8.468-2.106-12.15-0.436
			c2.108-1.729,4.207-3.477,6.241-5.312c1.31-0.535,2.604-1.148,3.988-1.494c2.882-0.665,5.246-1.035,7.315-3.547
			c2.808-3.621,0.369-5.764-3.621-4.434c-3.177,1.108-5.024,3.252-6.429,6.133c-0.304,0.607-0.585,1.225-0.911,1.811
			c-2.218,1.736-4.493,3.408-6.765,5.084c0.479-0.643,0.955-1.284,1.396-1.945c0.887-1.182,2.882-3.621,2.512-5.247
			c-0.517-1.921-2.143-1.33-3.473-0.369c-3.063,2.297-2.711,6.135-3.129,9.567c-1.405,1.056-2.8,2.124-4.163,3.226
			c-0.766,0.619-1.588,1.287-2.428,1.993c0.281-0.518,0.583-1.033,0.927-1.56c1.034-1.552,5.32-11.306-0.074-8.646
			c-3.894,1.813-4.977,9.162-4.479,13.486c-1.487,1.473-2.87,3.063-3.962,4.748c2.026-10.049,5.382-19.726,10.331-28.372
			c0.103,0.034,0.213,0.045,0.338,0.003c2.706-0.935,16.686-0.944,15.346-5.759c-1.188-4.261-9.492-0.267-13.828,2.679
			c1.302-2.044,2.689-4.029,4.188-5.931c3.124-0.616,6.691-0.847,9.634-2.066c1.471-0.61,3.186-2.529,1.432-3.907
			c-1.214-0.953-3.173-0.207-4.716,0.583c-0.579,0.256-1.153,0.573-1.706,0.937c-0.569,0.318-1.163,0.67-1.756,1.053
			c0.887-0.985,1.803-1.945,2.752-2.879c0.574-0.295,1.097-0.68,1.676-0.984c0.772-0.406,1.609-0.692,2.404-1.048
			c0.891-0.397,1.734-0.922,2.556-1.443c1.166-0.74,3.715-2.256,3.353-3.951c-0.42-1.967-4.422-0.775-5.443-0.251
			c-2.371,1.215-3.621,3.988-4.683,6.392c-0.194,0.188-0.356,0.402-0.487,0.637c-0.99,0.937-1.947,1.896-2.871,2.88
			c1.246-3.092,2.479-7.62,0.101-8.204c-2.057-0.505-3.84,1.72-4.326,3.453c-0.698,2.488,0.49,5.358,1.706,7.578
			c-1.18,1.404-2.293,2.853-3.354,4.335c0.517-4.043,0.271-9.466-3.075-9.489c-5.906-0.04-1.967,10.884,0.281,13.682
			c-2.611,4.234-4.803,8.72-6.61,13.387c-0.043-1.621-0.252-3.251-0.614-4.872c0.005-0.014,0.018-0.017,0.021-0.031
			c0.751-3.271,4.267-4.638,5.236-7.738c0.569-1.818,0.062-4.14-2.233-3.927c-3.023,0.28-4.168,4.158-4.26,7.56
			c-0.588-1.605-1.288-3.186-2.076-4.723c0.951-2.03,2.322-3.798,3.205-5.877c0.715-1.683,0.584-3.645-1.5-4.021
			c-3.423-0.616-4.46,2.321-4.37,5.297c-0.516-0.797-1.048-1.571-1.587-2.326c-0.013-0.074-0.025-0.149-0.063-0.227
			c-0.66-1.338-0.386-2.841-0.915-4.205c-0.323-0.834-0.902-1.554-1.508-2.202c-0.963-1.032-2.552-2.242-4.014-1.581
			c-1.71,0.773-0.776,3.674-0.097,4.778c1.248,2.027,3.274,3.253,5.361,4.245c0.541,0.958,1.109,1.905,1.687,2.847
			c-0.529-0.385-1.047-0.738-1.477-1.053c-1.451-1.063-4.149-2.187-5.212,0.043c-0.897,1.882,1.553,3.558,2.936,4.188
			c1.873,0.854,4.443,1.672,6.568,1.597c0.055,0.099,0.112,0.197,0.164,0.296c0.535,1.011,1.001,2.03,1.422,3.058
			c-0.94-0.758-2.023-1.347-3.146-1.734c-1.426-0.494-3.681-1.085-4.895,0.157c-1.351,1.381,0.439,3.759,1.572,4.566
			c2.143,1.528,5.38,1.309,7.874,1.247c0.566,2.169,0.935,4.395,1.12,6.712c0.001,0.019,0.016,0.024,0.02,0.041
			c-4.626,12.878-6.479,27-6.441,40.858c-1.184-3.646-2.838-7.311-4.584-10.828c0.179-1.159,0.408-2.332,0.821-3.47
			c0.96-2.66,7.537-12.119,1.847-13.449c-6.192-1.451-5.224,8.388-3.805,14.663c-1.139-2.221-2.279-4.365-3.318-6.383
			c-0.858-1.665-1.659-3.353-2.438-5.048c0.217-0.835,0.626-1.643,1.064-2.345c1.108-2.069,2.808-3.621,3.473-5.911
			c0.591-1.921,1.33-7.242-1.552-7.833c-3.103-0.591-4.877,4.582-5.099,6.725c-0.164,1.603-0.094,3.319,0.149,5.011
			c-1.678-3.749-3.37-7.473-5.394-11.025c-0.02-0.81-0.001-1.62-0.076-2.411c-0.222-3.473-5.32-18.621-9.458-10.936
			c-3.278,6.154,3.679,9.826,7.876,13.317c1.179,2.299,2.264,4.643,3.309,7.007c-0.417-0.311-0.837-0.618-1.21-0.964
			c-1.404-1.331-9.606-7.981-10.641-3.4c-0.912,3.717,9.688,6.301,12.979,6.934c1.46,3.358,2.904,6.731,4.527,10.031
			c0.442,0.899,0.896,1.778,1.346,2.66c-0.546-0.402-1.099-0.796-1.636-1.226c-3.104-2.364-10.271-11.158-14.778-7.981
			c-5.666,3.973,14.744,10.289,17.326,10.999c1.864,3.611,3.711,7.187,5.247,11.032c-0.6-0.437-1.226-0.856-1.884-1.267
			c-1.847-1.182-3.177-2.512-4.877-3.842c-2.068-1.7-8.645-5.247-11.306-3.104c-4.954,4.035,14.691,8.812,18.563,9.467
			c1.219,3.167,2.354,6.347,3.653,9.479c0.197,4.844,0.605,9.629,1.2,14.287c1.59,12.45,5.303,24.408,10.567,35.709
			c-2.069-1.786-4.204-3.499-6.398-5.142c-0.958-2.094-1.741-3.571-1.899-5.943c-0.134-2.005-0.215-4.008-0.469-6.003
			c-0.268-2.104-0.963-5.78-3.616-6.124c-3.333-0.432-3.194,3.895-2.943,6.09c0.361,3.166,1.542,5.95,3.562,8.172
			c-1.973-1.326-3.979-2.605-6.017-3.832c-1.355-4.711,1.332-16.144-6.121-14.351c-5.332,1.283-3.112,6.796-0.204,10.737
			c-2.066-1.117-4.155-2.186-6.26-3.216c-1.694-1.995-3.741-3.816-5.507-5.721c-1.622-1.751-3.512-3.496-5.761-4.39
			c-2.665-1.059-6.774-1.827-7.741,1.749c-0.964,3.563,2.247,6.385,5.151,7.524c4.085,1.603,8.772,1.442,13.074,2.109
			c2.363,1.355,4.692,2.756,6.992,4.193c-1.854-0.27-3.794-0.236-5.43-0.14c-2.268,0.132-7.016,0.678-7.302,3.718
			c-0.308,3.278,2.744,3.915,5.297,3.377c2.001-0.421,3.929-1.404,5.752-2.296c2.023-0.989,3.646-1.667,5.724-2.086
			c2.774,1.8,5.522,3.645,8.261,5.513c-4.738-0.68-11.346,0.304-12.96,4.275c-1.312,3.23,2.371,4.52,4.796,4.393
			c1.814-0.095,3.441-0.716,4.886-1.791c0.923-0.688,1.66-1.634,2.417-2.491c1.052-1.191,2.299-1.893,3.688-2.455
			c3.497,2.407,6.997,4.839,10.539,7.261c1.233,2.487,2.536,4.943,3.914,7.361c4.082,7.169,8.798,14.353,13.987,21.188
			c-2.275-1.354-4.808-2.469-7.437-3.408c-0.045-0.05-0.083-0.103-0.141-0.145c-4.233-3.106-5.722-7.387-8.407-11.701
			c-1.836-2.948-4.36-5.495-8.064-4.651c-3.679,0.839-1.776,5.338-0.462,7.277c1.733,2.556,4.236,4.594,6.953,6.296
			c-1.558-0.383-3.07-0.741-4.483-1.086c-1.24-0.302-2.483-0.586-3.73-0.861c-0.043-0.018-0.094-0.02-0.141-0.032
			c-0.299-0.066-0.6-0.128-0.899-0.193c-0.569-1.022-1.337-1.926-1.874-2.991c-0.8-1.586-1.542-3.194-2.413-4.746
			c-1.27-2.265-3.231-5.558-6.195-5.558c-3.013,0-3.452,3.569-2.417,5.656c1.273,2.567,3.305,4.22,5.607,5.553
			c0.61,0.455,1.246,0.823,1.85,0.994c-3.321-0.628-6.655-1.2-9.993-1.742c-0.003-0.003-0.003-0.004-0.005-0.007
			c-1.086-1.156-1.076-2.854-2.034-4.115c-0.71-0.935-1.564-1.753-2.451-2.519c-1.284-1.109-3.459-2.988-5.283-2.126
			c-2.196,1.036-0.188,4.674,0.817,5.742c0.744,0.792,1.65,1.455,2.637,2.014c-0.866-0.138-1.732-0.274-2.599-0.413
			c-3.458-2.082-15.334-9.983-15.512-2.586c-0.157,6.486,10.553,4.469,14.549,3.487c0.374,0.088,0.75,0.17,1.125,0.255
			c0.023,0.008,0.047,0.019,0.069,0.027c0.053,0.019,0.101,0.021,0.148,0.021c1.407,0.318,2.818,0.621,4.231,0.913
			c-1.854,0.544-3.58,1.796-4.973,2.999c-1.306,1.129-3.64,3.957-2.009,5.708c1.303,1.402,4.246-0.934,5.253-1.657
			c0.982-0.706,1.92-1.48,2.813-2.295c1.188-1.085,1.833-2.587,3.04-3.663c0.081-0.072,0.138-0.151,0.177-0.232
			c3.181,0.616,6.367,1.208,9.552,1.822c-1.819,0.317-3.618,0.8-5.372,1.339c-2.354,0.723-7.172,2.327-7.151,5.504
			c0.021,3.293,3.293,4.026,5.845,2.871c2.005-0.909,3.747-2.234,5.469-3.59c2.647-2.087,4.621-3.421,7.987-4.431
			c0.157-0.047,0.282-0.127,0.39-0.221c3.183,0.706,6.279,1.534,9.315,2.477c-4.342,1.02-8.328,4.139-11.5,7.06
			c-1.367,1.259-5.074,6.611-1.071,7.413c3.411,0.685,7.221-2.677,9.689-4.563c2.978-2.272,6.172-5.088,8.628-7.976
			c4.543,1.673,8.984,3.64,13.422,5.873c4.889,6.099,10.152,11.848,15.681,16.961c0.354,0.326,1.01-0.118,0.697-0.538
			c-1.511-2.018-3.059-3.998-4.62-5.965c0.003-0.079-0.004-0.158-0.038-0.234c-2.338-5.395-2.834-11.073-2.713-16.808
			c1.115-0.573,1.892-1.552,2.98-2.267c0.796-0.522,1.654-0.802,2.546-1.114c2.327-0.816,4.659-1.611,6.867-2.724
			c2.564-1.293,5.422-5.077,1.458-6.805c-2.044-0.892-4.423-0.04-6.543,1.235c-0.724,0.395-1.425,0.88-2.086,1.425
			c-0.699,0.529-1.336,1.055-1.872,1.506c-0.801,0.676-2.028,1.832-3.079,3.159c0.144-2.059,0.313-4.116,0.462-6.161
			c0.079-1.104,0.179-2.209,0.288-3.315c2.268-1.637,4.256-3.252,7.023-4.117c2.452-0.766,4.868-1.527,7.173-2.684
			c2.117-1.062,6.458-5.364,3.278-7.838c-2.797-2.177-6.872,0.455-9.332,2.067c-2.31,1.514-5.555,3.753-7.358,6.467
			c0.481-3.036,1.105-6.051,1.901-9.016c1.606-0.486,2.816-1.911,4.527-2.352c1.996-0.514,4.013-0.944,5.991-1.524
			c2.335-0.683,7.068-1.92,6.884-5.132C130.034,163.517,125.137,165.049,123.235,165.819z M92.923,49.337
			c0.003,0.014,0.004,0.029,0.008,0.043c-0.02,0.018-0.04,0.036-0.062,0.053C92.888,49.401,92.905,49.369,92.923,49.337z
			 M59.483,54.033c0.023,0.029,0.046,0.057,0.069,0.085c0.03,0.058,0.064,0.114,0.096,0.171
			C59.59,54.206,59.539,54.119,59.483,54.033z M44.328,165.224c-0.021-0.016-0.041-0.03-0.063-0.044
			c0.081-0.027,0.159-0.056,0.244-0.08C44.446,165.137,44.39,165.183,44.328,165.224z M59.631,188.566
			c-0.009-0.009-0.018-0.021-0.027-0.029c0.021-0.003,0.045-0.003,0.067-0.004C59.658,188.544,59.643,188.553,59.631,188.566z"/>
		<path d="M463.406,115.495c-5.338-2.11-12.164,6.702-16.384,9.681c-3.906,2.901-6.303,6.907-8.28,11.205
			c-2.613,1.197-5.471,2.201-8.015,3.411c1.283-2.491,2.329-5.125,3.003-7.823c2.477-2.785,6.852-3.623,9.072-6.793
			c3.352-4.841-1.365-9.433-2.979-14.025c-1.241-3.847-1.364-18.493-7.445-15.142c-6.206,3.475-5.958,12.908-4.469,18.617
			c1.226,4.527,3.736,9.769,4.329,14.803c-0.49,3.662-1.458,7.273-2.842,11.041c-2.364,1.27-4.325,2.812-5.349,5.001
			c-0.206-5.518-0.559-11.026-1.192-16.515c0.055-0.167,0.051-0.353-0.053-0.533c-0.003-0.006-0.008-0.012-0.012-0.02
			c-0.059-0.494-0.112-0.989-0.177-1.483c-1.26-9.79-3.918-19.333-8.15-28.167c0.03-0.081,0.044-0.171,0.016-0.268
			c-1.28-4.459-1.565-8.595-1.278-12.635c3.064-2.853,8.559-2.889,10.86-6.225c1.489-1.986,0.621-3.227,0.496-5.46
			c-0.248-3.351,0.496-5.834,1.489-9.061c1.241-3.724,2.234-16.011-5.461-14.646c-2.109,0.497-3.599,3.848-4.716,5.337
			c-2.979,3.723-6.95,6.95-9.185,11.17c-3.709,7.07,0.486,12.627,4.596,18.185c-0.124,3.055,0.116,6.085,0.773,8.963
			c-1.469-2.62-3.079-5.172-4.854-7.629c-2.137-2.957-4.498-5.719-7.029-8.317c-0.336-1.945-0.248-3.925-1.056-5.74
			c-1.118-3.103-3.228-2.73-5.089-4.716c-2.11-2.358-1.613-6.33-3.228-8.937c-2.234-3.847-4.344-3.351-8.067-3.971
			c-7.074-1.365-14.398-13.777-22.217-6.951c-7.57,6.578,9.061,22.589,13.529,26.809c8.443,7.839,15.83,2.438,25.352,4.746
			c2.688,2.839,5.204,5.853,7.486,9.091c7.585,10.759,11.566,23.432,13.541,36.336c-3.249-4.389-7.448-8.116-12.307-10.559
			c-0.982-0.493-2.04-0.94-3.143-1.348c-2.125-3.105-5.449-5.745-8.714-6.865c-5.213-1.986-9.929,1.117-15.141-1.241
			c-5.09-2.234-12.537-6.95-17.501-0.869c-3.6,4.592,11.17,12.287,15.267,12.66c3.847,0.372,7.818-1.49,11.542-2.11
			c3.482-0.545,7.061-0.611,10.565-0.535c2.065,0.435,4.12,1.049,6.166,1.951c1.739,0.766,3.281,1.74,4.7,2.847
			c-2.349-0.12-4.907,0.053-7.253,0.696c-4.957-1.914-9.555-0.662-13.558,2.736c-2.357,1.986-10.425,6.95-8.811,10.177
			c0.744,1.614,10.798,6.206,12.783,5.958c4.965-0.745,5.337-8.067,7.074-11.419c0.798-1.708,5.445-4.666,5.155-6.198
			c1.955-0.426,4.044-0.57,6.315-0.508c2.676,2.444,4.943,5.335,7.345,8.139c0.215,1.708,0.403,3.416,0.556,5.122
			c1.059,11.812,0.957,23.731,1.06,35.613c-1.633-2.406-3.638-4.71-5.892-6.822c-1.73-3.433-2.15-7.321-4.113-10.522
			c-3.102-4.841-31.524-16.879-33.386-8.564c-1.241,5.212,14.77,16.755,18.864,18.492c5.534,2.388,11.353,0.221,16.875,1.877
			c2.769,2.238,5.348,4.736,7.674,7.588c0.031,2.925,0.075,5.847,0.163,8.762c0.497,16.618,0.799,33.623,3.161,50.096
			c0.114,0.795,1.377,0.582,1.372-0.184c-0.074-11.991-0.951-24.003-1.697-36.009c0.937-4.181,3.928-7.249,7.355-10.111
			c2.463-0.792,5.48-1.319,7.297-1.664c5.213-0.869,9.682,0.497,13.032-5.212c1.612-2.855,3.972-19.61,0.62-20.975
			c-1.613-0.869-14.148,11.046-16.011,12.908c-4.649,4.536-5.987,10.522-8.646,16.162c-1.488,1.404-2.913,2.996-3.901,4.749
			c-0.266-4.54-0.497-9.078-0.641-13.614c-0.281-8.82-0.245-17.674-0.478-26.51c1.904-6.63,8.51-8.73,14.292-11.261
			c0.633-0.278,1.293-0.575,1.956-0.893c0.918,0.186,1.509,1.022,2.63,1.454c3.104,1.117,4.717,0.869,7.82-0.248
			c6.577-2.482,13.403-5.585,18.368-10.798c2.357-2.482,3.475-3.723,1.612-6.454C469.612,119.591,465.516,116.24,463.406,115.495z"
			/>
		<path d="M261.011,381.891c-11.491,4.317-22.351,9.745-24.528,22.719c-0.634,4.194-0.597,8.311-2.154,12.114
			c-2.916,3.537-5.567,7.204-7.724,11.048c2.441-16.779,2.676-34.186,0.313-51.092c0.08-0.088,0.136-0.201,0.142-0.34
			c0.321-9.124,3.829-16.373,8.422-23.661c1.49-0.928,3.12-1.647,4.791-2.493c8.762-4.603,18.668-9.123,21.334-19.622
			c2.844-11.151-3.565-24.39-6.977-34.928c-4.703,11.105-15.767,18.116-20.254,29.282c-3.866,9.499-0.718,19.472-2.327,29.094
			c-2.984,4.878-5.558,10.16-6.244,15.751c-1.451-7.88-3.495-15.612-6.17-23.08c-0.723-4.125-1.909-8.154-2.404-12.221
			c-1.469-11.639-0.544-22.619-8.903-32.183c-9.643-10.853-25.69-17.156-37.696-25.387c1.799,7.051,4.865,13.748,7.652,20.603
			c6.223,16.463,11.199,32.348,27.178,41.441c3.293,1.811,9.102,4.047,12.038,7.245c5.534,15.65,8.031,32.139,8.385,48.841
			c-1.882-3.594-4.602-6.885-7.782-9.887c-0.216-0.744-0.431-1.476-0.688-2.175c-5.395-21.15-24.997-23.051-43.917-28.273
			c8.838,7.823,9.887,20.985,21.226,27.393c6.666,3.561,14.639,2.956,21.568,5.316c4.074,3.861,7.497,8.204,9.639,13.342
			c-0.104,14.487-1.73,29.08-4.288,43.369c-1.214-2.729-2.727-5.245-4.479-7.588c0.049-1.335,0.106-2.703,0.139-3.972
			c1.101-29.42-27.982-30.896-49.362-40.776c2.954,4.56,5.413,9.219,7.595,14.034c6.057,11.968,11.161,24.848,25.237,28.966
			c4.077,1.126,9.306,0.54,13.365,1.927c2.633,2.934,5.035,6.124,6.959,9.837c0.021,0.041,0.053,0.064,0.079,0.099
			c-0.422,2.255-0.86,4.508-1.324,6.746c-0.148,0.716,0.892,1.018,1.101,0.304c1.999-6.795,3.63-13.822,4.863-20.983
			c3.474-5.228,7.133-10.171,11.156-14.923c1.777-0.237,3.621-0.032,5.645,0.227c9.675,0.564,21.117,4.895,29.511-2.619
			c8.73-7.889,8.998-30.051,9.766-41.306C275.035,376.87,268.023,379.38,261.011,381.891z"/>
		<path d="M78.842,432.38c2.347-4.222,5.347-8.043,8.689-11.519c1.963-2.042,7.226-8.878,10.215-5.084
			c1.336,1.696,1.643,4.137,2.721,5.999c1.08,1.866,2.699,3.177,4.634,4.099c1.294,0.618,4.339,1.8,4.856-0.267
			c0.358-1.43-1.315-2.869-0.739-4.418c1.519-4.093,8.967,1.257,11.313,1.752c2.88,0.607,7.374-0.063,9.252-2.522
			c2.842-3.724-1.188-6.767-3.18-9.461c-1.848-2.498,0.538-2.521,2.795-2.675c4.264-0.291,9.036-0.151,12.976-2.061
			c7.384-3.581-1.825-7.967-4.854-10.196c-1.861-1.371-1.206-2.342,0.247-3.848c2.256-2.339,4.872-4.402,6.458-7.305
			c1.118-2.048,1.654-4.793-1.231-5.421c-3.356-0.73-7.478,1.686-10.205,3.324c-1.692,1.016-3.294,2.162-4.878,3.336
			c-0.55,0.408-1.879,1.821-2.613,1.831c-1.481,0.019-0.515-2.695-0.391-3.792c0.247-2.179,0.856-6.061-0.842-7.858
			c-2.027-2.142-4.661,1.065-5.836,2.626c-2.504,3.327-4.054,7.246-5.718,11.027c-0.724,1.645-1.382,3.933-2.646,1.578
			c-1.443-2.686-2.018-5.814-4.442-7.91c-2.681-2.315-5.579-1.004-7.541,1.529c-3.145,4.061-4.161,9.235-3.641,14.272
			c0.259,2.494,0.887,4.994,1.785,7.331c0.443,1.149,1.056,1.82,0.469,2.914c-0.547,1.018-2.407,2.079-3.292,2.863
			c-4.828,4.281-9.355,8.953-12.956,14.218c0.84-3.571,1.601-7.132,2.334-10.599c2.586-12.231,3.937-24.757,3.804-37.263
			c-0.026-2.455,1.784-5.876,2.849-8.037c1.447-2.939,4.608-10.438,8.823-9.582c2.369,0.48,4.381,2.977,6.2,4.4
			c2.265,1.772,4.729,3.033,7.43,3.999c3.167,1.133,11.706,3.008,13.916-0.903c1.186-2.099-2.241-3.98-1.297-5.458
			c0.59-0.922,3.673-0.798,4.571-0.897c2.323-0.259,4.817-0.424,7.018-1.272c4.228-1.63,1.416-4.32-1.164-6.007
			c-1.85-1.209-5.142-2.418-1.46-3.266c3.623-0.835,9.563-1.251,11.952-4.562c2.53-3.507-3.876-5.428-6.173-6.218
			c-0.651-0.224-3.013-0.645-3.039-1.594c-0.024-0.842,2.425-1.837,2.976-2.185c3.392-2.139,6.884-8.233,1.801-10.703
			c-2.988-1.453-7.898,0.703-10.58,2.232c-1.423,0.813-3.966,2.208-4.999,0.27c-1.028-1.927,1.29-4.142,0.014-6.294
			c-1.284-2.167-4.201-1.773-6.224-1.015c-3.442,1.291-6.245,4.623-6.505,8.338c-0.13,1.861-0.327,2.938-1.743,4.357
			c-1.076,1.08-2.781,2.303-4.218,1.037c-1.677-1.478,0.291-5.002-3.026-5.26c-4.907-0.383-10.162,4.586-11.831,8.816
			c-2.283,5.785,1.262,13.712,2.825,19.294c-3.828,4.3-6.831,9.093-8.313,14.479c-0.387-7.054-1.318-14.066-2.445-21.05
			c0.07-0.172,0.091-0.367,0.012-0.587c-0.055-0.156-0.123-0.311-0.18-0.466c-0.935-5.698-1.969-11.378-2.907-17.052
			c-0.564-3.416-0.919-6.848-1.384-10.276c-0.349-2.571-1.589-5.494,1.168-6.743c3.387-1.534,9.65-5.575,8.679-10.116
			c-0.647-3.021-4.421-3.413-6.528-4.942c-2.797-2.029,0.049-4.785,1.613-6.752c1.33-1.67,5.557-5.783,4.519-8.287
			c-1.023-2.468-5.783-0.47-7.422,0.108c-1.599,0.563-4.77,2.597-5.661,0.408c-0.471-1.155,0.1-3.214,0.147-4.422
			c0.073-1.85,0.059-3.744-0.387-5.554c-0.72-2.928-3.01-6.052-6.354-4.441c-3.321,1.601-4.338,6.13-4.068,9.463
			c0.138,1.703,0.604,3.363,1.323,4.911c0.13,0.279,1.233,1.83,1.109,2.118c-0.22,0.517-4.13-0.699-4.791-0.785
			c-1.608-0.208-5.934-0.742-6.345,1.62c-0.438,2.522,4.531,5.242,6.141,6.316c1.265,0.846,6.333,3.117,6.303,5.038
			c-0.025,1.542-3.364,2.201-4.432,2.73c-5.609,2.777-0.204,5.764,3.479,6.641c4.032,0.96,8.63,1.271,9.416,6.111
			c0.901,5.56,0.877,11.335,1.662,16.937c0.465,3.317,0.963,6.629,1.458,9.94c-0.159-1.063-1.627-2.686-2.203-3.605
			c-0.824-1.313-1.68-2.602-2.65-3.814c-1.362-1.701-2.967-2.88-2.682-5.221c0.411-3.37,5.265-11.476,1.291-14.117
			c-1.798-1.193-2.105,0.779-3.399,1.672c-2.324,1.602-2.821-0.238-2.564-2.298c0.389-3.1,0.806-5.722,0.079-8.855
			c-0.683-2.945-3.536-6.099-6.502-3.547c-1.801,1.549-3.085,6.976-4.94,2.537c-1.431-3.423-0.655-9.659-5.641-10.12
			c-2.567-0.238-5.614,1.211-7.062,3.32c-1.662,2.422,0.497,5.093,1.738,7.271c0.499,0.876,2.059,2.427,2.188,3.418
			c0.12,0.908,0.412,0.494-0.502,0.705c-0.943,0.218-2.704-0.523-3.678-0.638c-2.312-0.272-7.307-0.68-8.434,2.111
			c-1.335,3.301,4.305,6.29,6.477,7.401c2.231,1.143,4.592,2.023,6.981,2.771c1.081,0.337,3.423,0.504,4.292,1.245
			c0.724,0.618,0.752,0.075,0.155,0.739c-0.535,0.596-2.611,0.825-3.362,1.09c-1.651,0.581-6.344,2.012-6.332,4.358
			c0.014,2.657,5.798,2.781,7.466,2.906c5.621,0.419,13.16-1.488,18.217,1.62c2.611,1.605,4.317,4.684,6.044,7.121
			c1.092,1.542,2.186,3.081,3.248,4.642c0.719,1.057,2.619,3.022,2.801,4.281c1.127,7.836,2.109,15.688,2.479,23.617
			c0.449,9.602-0.241,19.207-1.616,28.714c-0.641-2.561-1.566-4.999-2.618-7.415c-0.803-1.845-3.101-4.728-3.208-6.685
			c-0.095-1.729,2.194-2.959,2.743-4.636c0.591-1.805,0.417-3.824-0.831-5.307c-1.434-1.7-1.471-2.504-0.758-4.746
			c0.72-2.265,3.158-6.664,1.278-8.892c-3.369-3.991-11.599,4.413-10.058-4.357c0.368-2.093,2.074-7.182-0.574-8.466
			c-2.636-1.279-6.64,2.531-8.599,3.819c-2.818,1.852-3.445,0.902-4.47-2.011c-1.154-3.281-2.978-7.827-6.964-8.365
			c-4.378-0.591-5.941,4.335-5.264,7.808c0.456,2.337,1.68,4.469,3.174,6.294c0.91,1.11,2.671,2.168,3.34,3.404
			c1.1,2.033-2.952,2.044-4.538,2.628c-2.705,0.998-6.468,3.317-3.489,6.274c3.185,3.161,8.803,3.73,12.951,4.721
			c3.506,0.839,2.3,1.428-0.314,2.714c-1.584,0.779-6.395,2.692-5.167,5.178c1.261,2.552,7.405,2.385,9.676,2.439
			c5.41,0.135,13.546-2.167,16.461,3.685c2.847,5.716,5.587,12.025,6.189,18.418c-0.357,2.02-0.734,4.034-1.142,6.039
			c-1.487,7.304-3.747,14.386-5.951,21.478c-0.561-2.968-1.476-5.862-2.691-8.657l0.099,0.032c0.411,0.136,3.145-8.405,3.322-9.26
			c0.894-4.31,1.588-9.159-0.56-13.227c-1.711-3.242-4.646-3.175-6.575-0.109c-0.705,1.12-2.105,5.61-3.421,2.413
			c-0.824-2.001,0.274-4.601,0.365-6.676c0.089-2.019-0.394-4.236-1.802-5.753c-1.284-1.383-4.289-2.684-6.093-1.582
			c-1.243,0.76-0.704,5.476-2.424,5.222c-1.001-0.149-1.45-3.217-1.665-3.919c-0.585-1.914-1.351-3.972-2.622-5.554
			c-1.362-1.692-3.652-2.951-5.394-1.009c-1.946,2.17-1.052,6-0.182,8.408c0.566,1.568,1.407,3.136,2.275,4.558
			c0.407,0.666,1.538,1.754,1.636,2.547c0.256,2.084-4.12,1.185-5.591,1.324c-4.641,0.44-1.938,5.592,0.775,7.263
			c1.969,1.212,4.045,2.252,5.92,3.617c2.346,1.707,2.975,2.879,0.392,4.49c-1.897,1.184-4.07,2.498-4.341,4.947
			c-0.214,1.934,0.873,3.621,2.595,4.427c4.247,1.988,11.868,1.273,16.191,0.085c2.148-0.591,4.394-0.719,5.781,1.288
			c0.817,1.182,1.22,2.783,1.67,4.13c0.314,0.94,1.569,3.485,1.275,4.449c-1.329,4.357-2.591,8.729-3.58,13.171
			c-0.169,0.759,0.903,1.132,1.267,0.46C74.31,447.467,76.832,439.976,78.842,432.38z"/>
		<path d="M449.457,330.16c-10.561,5.958-20.853,8.26-30.061,16.655c-4.357,4.013-7.732,8.521-10.147,13.751
			c1.719-7.435,3.737-14.808,6.048-22.091c4.943-3.333,10.377-6.528,15.475-9.264c5.01-2.844,10.968-4.333,16.52-6.093
			c3.927-1.354,7.176-2.573,10.156-5.552c2.438-2.438,8.665-10.021,7.176-14.083c-1.489-4.061-5.281,0.678-7.313,2.572
			c-4.468,4.334-8.801,7.719-14.218,10.563c-7.552,3.775-20.518,9.004-26.235,17.07c1.187-3.527,2.439-7.032,3.763-10.509
			c3.211-3.279,8.854-6.775,12.452-9.134c5.011-3.25,11.375-2.572,16.385-6.094c5.01-3.386,13.406-12.457,11.917-19.093
			c-0.813-3.52-2.032,0.136-3.521,2.167c-3.386,4.875-7.447,7.989-12.594,10.968c-7.142,4.148-17.795,9.384-22.988,16.941
			c1.629-4.081,3.353-8.118,5.169-12.114c1.323-1.522,2.877-2.798,4.597-4.194c2.978-2.347,4.513-4.783,5.685-8.304
			c1.175-3.16,1.355-6.14,4.243-8.307c1.716-1.173,3.432-1.624,4.605-3.339c1.265-1.806,1.896-4.063,2.979-5.868
			c2.347-3.881,5.688-8.576,5.056-13.27c-3.611,2.347-5.146,6.68-8.396,9.298c-2.799,2.257-6.049,2.257-8.665,4.965
			c-3.341,3.43-5.507,7.583-6.951,12.096c-1.828,5.817-3.342,12.157-4.699,18.2c-1.55,3.303-3.036,6.633-4.442,9.992
			c0.061-1.786,0.496-3.488,0.79-5.264c0.542-3.113,1.896-6.634,1.896-9.749c0-3.521-2.437-5.551-3.25-8.802
			c-1.76-7.718,3.386-14.894,0.543-23.019c-1.355,2.166-1.896,5.01-2.844,7.312c-3.927,9.344-4.739,15.979-1.084,25.457
			c1.896,4.739,3.25,9.479,3.656,14.624l0.025,0.095c-2.577,6.197-4.907,12.491-7.007,18.861c0.319-2.164,1.148-4.03,0.346-6.634
			c-1.218-4.197-0.947-5.552-0.812-10.02c0.271-4.604-1.625-7.988-4.739-11.238c-4.739-4.604-4.468-7.584-4.198-14.354
			c0.137-6.499-0.541-12.862-0.541-19.362c-1.625,3.656-1.625,7.853-2.438,11.646c-2.437,12.998-4.333,20.988,2.979,32.769
			c3.641,5.898,8.319,12.38,8.662,19.441c-1.88,5.868-3.565,11.798-5.049,17.79c-0.029-0.313-0.053-0.62-0.092-0.942
			c-0.812-7.311-1.895-15.843-6.228-21.665c-7.854-10.563-7.719-26.135-15.979-36.425c-1.761,3.52-0.542,7.989,0.27,11.645
			c2.574,12.052,2.844,23.561,9.886,33.987c3.477,5.216,9.105,11.911,10.957,18.415c-0.981,4.303-1.864,8.633-2.647,12.988
			c-0.664-2.017-1.332-3.981-2.217-5.946c-2.03-4.74-4.739-6.635-7.853-10.426c-2.707-3.115-2.03-6.229-2.707-10.021
			c-1.626-9.343-11.917-14.353-17.197-21.529c0.813,2.709,2.844,4.604,4.197,7.177c5.281,9.343,3.656,21.395,12.052,29.248
			c3.657,3.414,11.136,7.816,13.485,12.908c-0.228,1.311-0.463,2.62-0.673,3.934c-0.691,4.313-1.265,8.639-1.741,12.98
			c-0.549-1.721-1.3-3.235-2.135-4.906c-1.624-3.386-2.709-7.311-4.604-10.426c-2.438-4.198-6.906-5.417-9.885-8.938
			c-7.313-8.53-9.344-22.206-18.145-29.113c-0.542,4.198-0.406,9.073,0.677,13.135c1.219,5.146,5.145,9.344,7.853,13.677
			c2.979,4.875,5.552,9.344,10.427,12.593c6.581,4.303,11.496,8.986,15.649,15.546c-0.465,4.452-0.82,8.915-1.069,13.384
			c-0.643-1.312-1.419-2.498-2.393-3.879c-4.062-6.094-5.281-12.728-11.917-16.655c-8.395-5.011-15.3-12.052-23.695-16.926
			c0.136,3.927,3.249,7.177,5.416,10.155c3.927,5.416,7.854,11.646,13.405,15.572c4.47,3.113,10.292,3.655,14.353,7.312
			c2.022,1.753,3.105,4.175,4.718,6.333c-0.296,6.046-0.4,12.098-0.322,18.146c0.102,8.037,0.38,16.423,1.246,24.716
			c0.817,0.348,1.637,0.691,2.465,1.027c-0.974-7.914-1.807-15.84-2.021-23.906c-0.183-6.793-0.064-13.593,0.294-20.378
			c1.031-0.904,2.506-1.426,3.777-2.012c7.04-2.979,14.353-3.656,21.529-5.688c12.458-3.385,19.77-12.593,26.945-22.748
			c-8.665,5.686-20.31,4.874-29.518,10.021c-8.497,4.706-17.11,11.561-22.693,19.705c0.257-4.621,0.629-9.233,1.112-13.837
			c1.474-1.589,4.741-2.281,6.551-3.702c2.979-2.166,5.551-6.228,9.071-7.447c3.115-1.083,6.771,0.406,10.021,0
			c7.583-0.814,21.394-10.02,22.749-18.145c-4.061,0.677-7.313,3.655-10.833,5.688c-9.207,4.875-20.853,3.386-28.978,10.426
			c-3.131,2.819-6.577,6.846-8.367,11.085c0.463-4.13,1.012-8.25,1.643-12.354c0.055-0.363,0.121-0.725,0.176-1.086
			c1.188-0.805,2.555-1.2,3.84-1.843c7.583-3.655,13.405-6.771,21.665-9.071c9.479-2.709,20.718-16.791,21.53-26.676
			c-3.386,1.76-6.364,4.604-9.072,7.177c-8.125,7.583-19.228,7.583-27.217,15.572c-2.477,2.476-7.776,7.782-10.342,12.384
			c0.839-5.032,1.81-10.049,2.922-15.042c2.367-1.96,5.28-2.303,7.962-3.706c5.144-2.573,7.311-7.583,11.644-10.969
			c3.927-2.979,7.989-3.52,12.457-5.01c9.749-3.385,22.343-11.645,21.124-22.748C458.259,324.202,454.062,327.588,449.457,330.16z"
			/>
		<path d="M302.682,270.483c4.852,5.35,3.7,11.334,4.646,17.605c2.439,4.757,4.816,9.523,7.093,14.318
			c-0.237-0.989-0.463-1.983-0.606-3.003c-0.413-2.595-0.677-16.124,4.06-13.457c3.696,1.977,1.853,9.232,0.742,12.027
			c-0.907,2.268-2.731,4.563-2.936,7.11c2.84,6.115,5.493,12.289,7.842,18.567c-0.038-1.295-0.348-2.553-0.448-3.879
			c-0.266-3-0.341-17.451,4.148-16.174c4.58,1.237,2.429,10.974,1.411,13.726c-1.1,2.975-2.92,5.375-4.488,8.063
			c1.693,4.651,3.221,9.361,4.532,14.153c0.354-0.944,0.748-1.861,1.093-2.791c1.06-2.66,6.256-18.98,10.717-14.124
			c3.134,3.296-1.584,10.479-3.658,12.995c-2.083,2.597-4.61,4.756-7.477,6.49c1.264,4.936,2.289,9.964,3.041,15.099
			c0.361-1.055,0.746-2.122,1.141-3.191c1.277-3.039,6.098-13.393,10.809-11.268c3.795,1.707-0.963,9.413-2.387,11.404
			c-2.251,3.056-5.447,5.681-9.046,7.016c0.157,1.337,0.325,2.671,0.443,4.022c0.29,3.356,0.474,6.737,0.584,10.127
			c0.1-0.222,0.183-0.449,0.286-0.668c1.263-2.588,7.159-13.991,10.885-10.859c5.3,4.336-7.496,13.307-11.089,15.328
			c0.073,5.403-0.065,10.831-0.413,16.268c0.686-1.185,1.342-2.372,2.096-3.476c1.565-2.17,8.541-11.953,11.415-8.372
			c2.419,2.955-2,7.885-4.027,9.653c-2.8,2.379-6.221,3.925-9.692,5.107c-0.328,4.253-0.77,8.504-1.335,12.741
			c0.779-1.114,1.703-2.123,2.531-3.131c2.241-2.759,4.574-5.56,7.843-7.175c3.176-1.572,7.911-1.577,7.438,3.21
			c-0.673,8.107-11.882,8.79-18.255,10.171c-0.863,5.872-1.942,11.708-3.223,17.482c0.857-1.219,1.586-2.509,2.334-3.747
			c2.454-3.747,9.186-13.697,14.525-7.908c3.807,4.155-2.648,9.02-6.001,10.45c-3.57,1.435-7.317,1.76-11.063,2.128
			c-1.856,8.233-4.102,16.336-6.706,24.196c-0.14,0.424-0.741,0.179-0.637-0.234c2.071-8.278,4.017-16.576,5.71-24.902
			c-0.282-1.95-2.257-3.247-3.751-4.599c-2.203-1.883-15.727-16.5-6.373-15.789c5.986,0.57,9.652,10.232,10.865,16.705
			c0.908-4.692,1.715-9.396,2.419-14.108c-1.004-1.064-2.124-1.964-3.332-2.885c-2.277-1.683-16.031-11.958-10.859-15.006
			c3.602-2.102,9.863,5.938,11.423,8.116c1.189,1.657,2.556,3.665,3.345,5.774c0.525-3.879,0.966-7.766,1.31-11.661
			c-0.62-1.022-1.886-1.859-2.773-2.5c-1.918-1.626-16.652-10.28-11.424-13.689c3.008-1.941,9.313,4.741,10.864,6.536
			c1.498,1.736,2.992,3.809,3.613,6.103c0.354-4.842,0.552-9.703,0.57-14.58c-1.258-0.848-2.447-1.878-3.732-2.65
			c-2.311-1.391-4.888-2.267-7.123-3.856c-1.84-1.215-7.399-5.789-5.996-8.553c1.719-3.409,9.139,3.151,10.568,4.443
			c2.461,2.206,4.92,4.783,6.269,7.852c-0.05-4.538-0.241-9.088-0.634-13.66c-0.068-0.804-0.182-1.594-0.266-2.393
			c-0.897-0.589-1.85-0.968-2.882-1.411c-2.888-1.067-5.448-2.396-7.878-4.288c-1.615-1.206-9.173-6.98-7.911-9.566
			c1.477-2.964,10.272,3.799,11.575,4.816c2.576,1.933,5.165,4.183,6.715,7.01c-0.695-5.191-1.725-10.278-2.983-15.293
			c-0.964-0.711-2.09-0.642-3.254-0.852c-2.858-0.522-5.453-1.558-7.915-3.155c-2.085-1.381-8.506-5.894-7.314-9.116
			c1.845-5.168,13.715,5.869,17.917,10.854c-1.293-4.836-2.827-9.594-4.525-14.301c-1.074-0.216-2.1-0.68-3.147-0.933
			c-2.224-0.593-4.479-0.893-6.644-1.847c-2.502-1.077-9.909-4.58-10.259-7.762c-0.352-3.794,9.236,0.819,10.64,1.569
			c2.588,1.254,5.991,2.788,8.014,5.173c-2.104-5.502-4.424-10.934-6.885-16.313c-1.219-0.152-2.426-0.213-3.611-0.311
			c-2.488-0.08-4.818-0.18-7.136-1.342c-1.939-0.947-7.493-4.298-7.111-6.979c0.745-5.133,14.258,3.241,17.061,6.919
			c-2.35-5.071-4.802-10.106-7.3-15.121c-1.995-1.355-3.836-2.999-5.654-4.553c-3.659-3.108-7.509-7.355-7.614-12.433
			C293.29,265.33,299.532,267.027,302.682,270.483z"/>
	</g>
</g>
</svg>
